<svg xmlns="http://www.w3.org/2000/svg" enable-background="new 0 0 24 24" viewBox="0 0 24 24" id="webpack">
  <polygon points="3.027 6.415 3.028 6.414 3.027 6.414"></polygon>
  <polygon fill="#1B75BB" points="12.405 18.281 18.069 15.217 18.069 9.147 12.405 12.364"></polygon>
  <polygon fill="#8AD0F3" points="22.25 6.772 18.877 8.686 18.877 15.577 22.25 17.494"></polygon>
  <polygon fill="#1B75BB" points="17.688 8.445 12.001 5.368 6.315 8.445 12.001 11.674"></polygon>
  <polygon fill="#8AD0F3" points="18.147 16.081 12.405 19.188 12.405 23.182 21.62 18.055"></polygon>
  <polygon fill="#8AD0F3" points="11.596 19.188 5.854 16.081 2.381 18.055 11.596 23.182"></polygon>
  <polygon fill="#8AD0F3" points="1.75 17.494 5.123 15.577 5.123 8.686 1.75 6.772"></polygon>
  <polygon fill="#8AD0F3" points="5.495 7.98 11.595 4.679 11.595 .818 2.145 6.077"></polygon>
  <polygon fill="#1B75BB" points="11.596 12.364 5.932 9.147 5.932 15.217 11.596 18.281"></polygon>
  <polygon fill="#8AD0F3" points="12.405 4.679 18.505 7.981 21.855 6.077 12.405 .818"></polygon>
  <path d="M12,24c-0.127,0-0.253-0.032-0.367-0.096l-10.25-5.75C1.146,18.021,1,17.771,1,17.5v-11c0-0.271,0.146-0.521,0.383-0.654l10.25-5.75c0.229-0.127,0.506-0.127,0.734,0l10.25,5.75C22.854,5.979,23,6.229,23,6.5v11c0,0.271-0.146,0.521-0.383,0.654l-10.25,5.75C12.253,23.968,12.127,24,12,24z M2.5,17.061L12,22.39l9.5-5.329V6.939L12,1.61L2.5,6.939V17.061z M22.25,17.5h0.01H22.25z"></path>
  <path d="M1.751 18.25c-.266 0-.522-.141-.659-.39-.198-.363-.065-.819.298-1.019l4-2.19c.365-.199.82-.064 1.019.298.198.363.065.819-.298 1.019l-4 2.19C1.996 18.221 1.872 18.25 1.751 18.25zM12.001 12.75c-.27 0-.529-.145-.664-.399-.193-.365-.054-.819.312-1.014l6.25-3.31 3.99-2.186c.366-.199.819-.064 1.019.298.198.363.065.819-.298 1.019l-4 2.19-6.26 3.314C12.239 12.722 12.119 12.75 12.001 12.75z"></path>
  <path d="M12,20c-0.134,0-0.268-0.035-0.386-0.106l-6.25-3.75C5.139,16.008,5,15.764,5,15.5v-7c0-0.264,0.139-0.508,0.364-0.644l6.25-3.75c0.236-0.143,0.535-0.143,0.771,0l6.25,3.75C18.861,7.992,19,8.236,19,8.5v7c0,0.264-0.139,0.508-0.364,0.644l-6.25,3.75C12.268,19.965,12.134,20,12,20z M6.5,15.075l5.5,3.3l5.5-3.3v-6.15l-5.5-3.3l-5.5,3.3V15.075z M18.25,15.5h0.01H18.25z"></path>
  <path d="M11.999 12.75c-.118 0-.238-.028-.35-.087l-6.25-3.31L1.39 7.158C1.026 6.959.894 6.503 1.092 6.14S1.745 5.642 2.11 5.842l4 2.19 6.24 3.305c.366.194.506.648.312 1.014C12.528 12.605 12.269 12.75 11.999 12.75zM22.249 18.25c-.121 0-.245-.029-.359-.092l-4-2.19c-.363-.199-.496-.655-.298-1.019.199-.362.654-.497 1.019-.298l4 2.19c.363.199.496.655.298 1.019C22.771 18.109 22.515 18.25 22.249 18.25z"></path>
  <path d="M12 24c-.414 0-.75-.336-.75-.75V12c0-.414.336-.75.75-.75s.75.336.75.75v11.25C12.75 23.664 12.414 24 12 24zM12 5.5c-.414 0-.75-.336-.75-.75v-4C11.25.336 11.586 0 12 0s.75.336.75.75v4C12.75 5.164 12.414 5.5 12 5.5z"></path>
</svg>
